<?xml version="1.0" encoding="utf-8"?>
<!-- Generator: Adobe Illustrator 27.2.0, SVG Export Plug-In . SVG Version: 6.00 Build 0)  -->
<svg version="1.1" id="Camada_1" xmlns="http://www.w3.org/2000/svg" xmlns:xlink="http://www.w3.org/1999/xlink" x="0px" y="0px"
	 viewBox="0 0 796 200" style="enable-background:new 0 0 796 200;" xml:space="preserve">
<style type="text/css">
	.st0{fill:#F1F1F1;}
	.st1{fill:#161616;}
</style>
<path class="st0" d="M0,43.7C0,19.5,19.5,0,43.7,0h112.7C180.5,0,200,19.5,200,43.7v112.7c0,24.1-19.5,43.7-43.7,43.7H43.7
	C19.5,200,0,180.5,0,156.3V43.7z"/>
<path class="st1" d="M164,124l-64-86l-64,86h36.4L100,86.9l27.6,37.1H164z"/>
<path class="st1" d="M72,124l28,38l28-38h-15.9L100,140.4L87.9,124H72z"/>
<path class="st0" d="M260,142.1V58.7h10.2v83.4H260z"/>
<path class="st0" d="M287.5,142.1V79.6h9.1v15.1l-1.5-2c0.7-1.9,1.7-3.7,2.8-5.3c1.2-1.6,2.5-3,4-4c1.6-1.3,3.4-2.3,5.5-3
	c2-0.7,4.1-1.1,6.2-1.2c2.1-0.2,4.1,0,5.9,0.4v9.7c-2.1-0.6-4.5-0.7-7.1-0.5c-2.6,0.3-4.9,1.2-7.1,2.8c-2,1.4-3.5,3.2-4.7,5.2
	c-1.1,2-1.8,4.3-2.2,6.7c-0.4,2.4-0.6,4.8-0.6,7.2v31.4H287.5z"/>
<path class="st0" d="M355.6,143.8c-6.2,0-11.5-1.4-16-4.2c-4.4-2.8-7.9-6.7-10.3-11.7c-2.4-5-3.6-10.7-3.6-17.1
	c0-6.6,1.2-12.3,3.7-17.3c2.5-4.9,5.9-8.8,10.4-11.5c4.5-2.8,9.7-4.2,15.8-4.2c6.2,0,11.5,1.4,16,4.2c4.5,2.8,7.9,6.7,10.3,11.6
	c2.4,4.9,3.6,10.6,3.6,17.1c0,6.5-1.2,12.3-3.6,17.3c-2.4,4.9-5.9,8.8-10.3,11.6C367.1,142.4,361.8,143.8,355.6,143.8z M355.6,134.1
	c6.4,0,11.2-2.2,14.4-6.5c3.1-4.3,4.7-9.9,4.7-16.8c0-7.1-1.6-12.7-4.8-16.8c-3.2-4.2-7.9-6.3-14.3-6.3c-4.3,0-7.9,1-10.7,3
	c-2.8,2-4.9,4.7-6.3,8.2c-1.4,3.5-2.1,7.5-2.1,12c0,7,1.6,12.7,4.8,16.9C344.7,131.9,349.4,134.1,355.6,134.1z"/>
<path class="st0" d="M442.4,142.1v-31.3c0-3-0.3-5.8-0.8-8.6c-0.5-2.7-1.4-5.2-2.7-7.4c-1.3-2.2-3-3.9-5.2-5.2
	c-2.1-1.3-4.9-1.9-8.2-1.9c-2.6,0-4.9,0.4-7,1.3c-2.1,0.8-3.8,2.2-5.3,3.9c-1.5,1.8-2.7,4-3.5,6.7c-0.8,2.7-1.2,5.8-1.2,9.4
	l-6.7-2.1c0-6.1,1.1-11.3,3.2-15.6c2.2-4.4,5.2-7.7,9.1-10c3.9-2.4,8.6-3.5,13.9-3.5c4,0,7.5,0.6,10.3,1.9c2.8,1.3,5.2,3,7.1,5.1
	c1.9,2.1,3.4,4.4,4.4,7.1c1.1,2.6,1.8,5.2,2.2,7.9c0.5,2.7,0.7,5.2,0.7,7.6v34.6H442.4z M398.2,142.1V79.6h9.2v16.7h1.1v45.8H398.2z
	"/>
<path class="st0" d="M485.3,142.1l-24-83.4h10.7l18.4,65.9l18.3-65.9l10.7-0.1l18.4,65.9l18.3-65.9H567l-24,83.4h-10.2l-18.6-65.4
	l-18.6,65.4H485.3z"/>
<path class="st0" d="M589.2,143.8c-4.6,0-8.5-0.8-11.7-2.5c-3.1-1.7-5.5-4-7.1-6.8c-1.6-2.8-2.4-5.9-2.4-9.3c0-3.3,0.6-6.1,1.8-8.5
	c1.3-2.4,3-4.4,5.3-6c2.3-1.6,5-2.9,8.1-3.8c2.9-0.8,6.2-1.5,9.9-2.1c3.7-0.6,7.4-1.2,11.1-1.7c3.8-0.5,7.3-1,10.5-1.4l-3.7,2.1
	c0.1-5.6-1-9.7-3.3-12.3c-2.3-2.7-6.3-4-12-4c-3.8,0-7,0.9-9.9,2.6c-2.8,1.7-4.8,4.5-5.9,8.3l-9.7-3c1.5-5.5,4.4-9.8,8.7-12.9
	c4.3-3.1,9.9-4.7,16.9-4.7c5.6,0,10.5,1,14.5,3.1c4.1,2,7,5.1,8.7,9.1c0.9,1.9,1.4,4,1.7,6.3c0.2,2.2,0.3,4.6,0.3,7.1v38.7h-9.1v-15
	l2.1,1.4c-2.3,5.1-5.6,8.9-9.8,11.5C600.3,142.5,595.2,143.8,589.2,143.8z M590.8,135.2c3.7,0,6.9-0.7,9.5-2
	c2.7-1.4,4.9-3.1,6.5-5.3c1.6-2.2,2.7-4.6,3.2-7.2c0.6-1.9,0.9-4.1,0.9-6.4c0.1-2.4,0.1-4.2,0.1-5.5l3.6,1.6
	c-3.3,0.5-6.6,0.9-9.8,1.3c-3.2,0.4-6.3,0.9-9.1,1.4c-2.9,0.5-5.5,1-7.8,1.7c-1.7,0.5-3.3,1.2-4.8,2.1c-1.5,0.8-2.6,1.9-3.6,3.3
	c-0.9,1.3-1.3,3-1.3,4.9c0,1.7,0.4,3.3,1.3,4.9c0.9,1.5,2.2,2.8,4,3.8C585.4,134.7,587.8,135.2,590.8,135.2z"/>
<path class="st0" d="M637.4,142.1V57h10.2v85.1H637.4z"/>
<path class="st0" d="M666,142.1V57h10.2v85.1H666z"/>
<path class="st0" d="M720.4,143.8c-6.1,0-11.4-1.4-16-4.1c-4.5-2.7-8-6.5-10.6-11.4c-2.5-4.9-3.8-10.6-3.8-17.1
	c0-6.8,1.2-12.7,3.7-17.7c2.5-5,6-8.9,10.4-11.6c4.5-2.7,9.7-4.1,15.7-4.1c6.2,0,11.5,1.4,15.9,4.3c4.4,2.9,7.7,7,9.9,12.4
	c2.2,5.4,3.2,11.8,2.9,19.2h-10.3V110c-0.1-7.7-1.7-13.4-4.7-17.2c-3-3.8-7.4-5.7-13.3-5.7c-6.3,0-11.1,2-14.4,6.1
	c-3.3,4.1-4.9,10-4.9,17.6c0,7.4,1.6,13.1,4.9,17.1c3.3,4.1,8,6.1,14.1,6.1c4.1,0,7.7-0.9,10.7-2.8c3-1.9,5.4-4.6,7.1-8.2l9.8,3.4
	c-2.4,5.5-6.1,9.8-10.9,12.9C731.8,142.3,726.4,143.8,720.4,143.8z M697.4,113.7v-8.3h45.8v8.3H697.4z"/>
<path class="st0" d="M796,142.1c-3.7,0.7-7.3,1-10.9,0.9c-3.6-0.1-6.7-0.8-9.5-2.1c-2.8-1.4-4.9-3.4-6.4-6.3c-1.2-2.5-1.9-5-2-7.5
	c-0.1-2.5-0.1-5.4-0.1-8.6V62.2h10.2V118c0,2.5,0,4.7,0.1,6.5c0.1,1.8,0.5,3.4,1.2,4.7c1.4,2.5,3.6,3.9,6.5,4.3
	c3,0.4,6.7,0.3,10.9-0.3V142.1z M754.5,88.1v-8.5H796v8.5H754.5z"/>
</svg>
